<?xml version="1.0" encoding="UTF-8"?>
<svg version="1.1" xmlns="http://www.w3.org/2000/svg" width="128" height="51">
<path d="M0 0 C13.53 0 27.06 0 41 0 C40.34 1.65 39.68 3.3 39 5 C26.13 5 13.26 5 0 5 C0 3.35 0 1.7 0 0 Z " fill="#1E6FC1" transform="translate(28,40)"/>
<path d="M0 0 C12.87 0 25.74 0 39 0 C39.66 1.65 40.32 3.3 41 5 C27.47 5 13.94 5 0 5 C0 3.35 0 1.7 0 0 Z " fill="#1E6FC1" transform="translate(28,6)"/>
<path d="M0 0 C14.19 0 28.38 0 43 0 C43 1.32 43 2.64 43 4 C28.81 4 14.62 4 0 4 C0 2.68 0 1.36 0 0 Z " fill="#1F70C1" transform="translate(78,20)"/>
<path d="M0 0 C12.21 0 24.42 0 37 0 C33.03720893 3.96279107 33.03720893 3.96279107 28.83544922 4.11352539 C27.49185158 4.11336695 26.14824753 4.10771152 24.8046875 4.09765625 C24.09724396 4.0962413 23.38980042 4.09482635 22.66091919 4.09336853 C20.39890331 4.087766 18.13698602 4.07521318 15.875 4.0625 C14.34244935 4.05748532 12.80989714 4.05292236 11.27734375 4.04882812 C7.51819112 4.03779577 3.75911228 4.02052952 0 4 C0 2.68 0 1.36 0 0 Z " fill="#1F6FC1" transform="translate(28,47)"/>
<path d="M0 0 C4.4840341 -0.04951788 8.96792239 -0.08577526 13.45214844 -0.10986328 C14.97691623 -0.11990744 16.50166484 -0.13354531 18.02636719 -0.15087891 C20.22075138 -0.17519738 22.41488042 -0.18649889 24.609375 -0.1953125 C25.92905273 -0.20578613 27.24873047 -0.21625977 28.60839844 -0.22705078 C31.73220559 -0.0179275 33.40580238 0.33394864 36 2 C36 2.66 36 3.32 36 4 C24.12 4 12.24 4 0 4 C0 2.68 0 1.36 0 0 Z " fill="#1F70C1" transform="translate(28,0)"/>
<path d="M0 0 C8.25 0 16.5 0 25 0 C25 1.65 25 3.3 25 5 C16.75 5 8.5 5 0 5 C0 3.35 0 1.7 0 0 Z " fill="#1E6FC1" transform="translate(0,40)"/>
<path d="M0 0 C9.9 0 19.8 0 30 0 C30.66 1.32 31.32 2.64 32 4 C21.44 4 10.88 4 0 4 C0 2.68 0 1.36 0 0 Z " fill="#1F70C1" transform="translate(35,27)"/>
<path d="M0 0 C10.56 0 21.12 0 32 0 C31.34 1.32 30.68 2.64 30 4 C20.1 4 10.2 4 0 4 C0 2.68 0 1.36 0 0 Z " fill="#1F70C1" transform="translate(35,20)"/>
<path d="M0 0 C8.25 0 16.5 0 25 0 C25 1.65 25 3.3 25 5 C16.75 5 8.5 5 0 5 C0 3.35 0 1.7 0 0 Z " fill="#1E6FC1" transform="translate(0,6)"/>
<path d="M0 0 C7.59 0 15.18 0 23 0 C23.66 1.65 24.32 3.3 25 5 C16.75 5 8.5 5 0 5 C0 3.35 0 1.7 0 0 Z " fill="#1E6FC1" transform="translate(71,6)"/>
<path d="M0 0 C7.59 0 15.18 0 23 0 C23 1.65 23 3.3 23 5 C15.08 5 7.16 5 -1 5 C-0.67 3.35 -0.34 1.7 0 0 Z " fill="#1E6FC1" transform="translate(105,6)"/>
<path d="M0 0 C8.25 0 16.5 0 25 0 C25 1.32 25 2.64 25 4 C16.75 4 8.5 4 0 4 C0 2.68 0 1.36 0 0 Z " fill="#1F70C1" transform="translate(0,47)"/>
<path d="M0 0 C8.25 0 16.5 0 25 0 C25 1.32 25 2.64 25 4 C16.75 4 8.5 4 0 4 C0 2.68 0 1.36 0 0 Z " fill="#1F70C1" transform="translate(0,0)"/>
<path d="M0 0 C6.27 0 12.54 0 19 0 C19.33 1.65 19.66 3.3 20 5 C13.4 5 6.8 5 0 5 C0 3.35 0 1.7 0 0 Z " fill="#1E6EC2" transform="translate(78,13)"/>
<path d="M0 0 C6.27 0 12.54 0 19 0 C19 1.65 19 3.3 19 5 C12.4 5 5.8 5 -1 5 C-0.67 3.35 -0.34 1.7 0 0 Z " fill="#1E6FC1" transform="translate(102,13)"/>
<path d="M0 0 C5.94 0 11.88 0 18 0 C18 1.65 18 3.3 18 5 C12.06 5 6.12 5 0 5 C0 3.35 0 1.7 0 0 Z " fill="#1E6FC1" transform="translate(110,40)"/>
<path d="M0 0 C5.94 0 11.88 0 18 0 C18 1.65 18 3.3 18 5 C12.06 5 6.12 5 0 5 C0 3.35 0 1.7 0 0 Z " fill="#1E6FC1" transform="translate(71,40)"/>
<path d="M0 0 C6.93 0 13.86 0 21 0 C21 1.32 21 2.64 21 4 C13.74 4 6.48 4 -1 4 C-0.67 2.68 -0.34 1.36 0 0 Z " fill="#1E6EC1" transform="translate(107,0)"/>
<path d="M0 0 C6.93 0 13.86 0 21 0 C21.33 1.32 21.66 2.64 22 4 C14.74 4 7.48 4 0 4 C0 2.68 0 1.36 0 0 Z " fill="#1F70C0" transform="translate(71,0)"/>
<path d="M0 0 C5.94 0 11.88 0 18 0 C18 1.32 18 2.64 18 4 C12.06 4 6.12 4 0 4 C0 2.68 0 1.36 0 0 Z " fill="#1F6FC1" transform="translate(110,47)"/>
<path d="M0 0 C5.94 0 11.88 0 18 0 C18 1.32 18 2.64 18 4 C12.06 4 6.12 4 0 4 C0 2.68 0 1.36 0 0 Z " fill="#1F70C1" transform="translate(71,47)"/>
<path d="M0 0 C5.61 0 11.22 0 17 0 C16.67 1.32 16.34 2.64 16 4 C11.05 4 6.1 4 1 4 C0.67 2.68 0.34 1.36 0 0 Z " fill="#1F70C1" transform="translate(91,27)"/>
<path d="M0 0 C4.29 0 8.58 0 13 0 C13 1.65 13 3.3 13 5 C8.71 5 4.42 5 0 5 C0 3.35 0 1.7 0 0 Z " fill="#1D70C2" transform="translate(56,33)"/>
<path d="M0 0 C4.29 0 8.58 0 13 0 C13 1.65 13 3.3 13 5 C8.71 5 4.42 5 0 5 C0 3.35 0 1.7 0 0 Z " fill="#1D70C2" transform="translate(56,13)"/>
<path d="M0 0 C4.29 0 8.58 0 13 0 C12.67 1.65 12.34 3.3 12 5 C8.37 5 4.74 5 1 5 C0.67 3.35 0.34 1.7 0 0 Z " fill="#1E70C2" transform="translate(93,33)"/>
<path d="M0 0 C3.96 0 7.92 0 12 0 C12 1.65 12 3.3 12 5 C8.04 5 4.08 5 0 5 C0 3.35 0 1.7 0 0 Z " fill="#1E6FC1" transform="translate(35,33)"/>
<path d="M0 0 C3.96 0 7.92 0 12 0 C12 1.65 12 3.3 12 5 C8.04 5 4.08 5 0 5 C0 3.35 0 1.7 0 0 Z " fill="#1E70C0" transform="translate(35,13)"/>
<path d="M0 0 C3.63 0 7.26 0 11 0 C11 1.65 11 3.3 11 5 C7.37 5 3.74 5 0 5 C0 3.35 0 1.7 0 0 Z " fill="#1E6FC1" transform="translate(110,33)"/>
<path d="M0 0 C3.63 0 7.26 0 11 0 C11 1.65 11 3.3 11 5 C7.37 5 3.74 5 0 5 C0 3.35 0 1.7 0 0 Z " fill="#1E6FC1" transform="translate(78,33)"/>
<path d="M0 0 C3.63 0 7.26 0 11 0 C11 1.65 11 3.3 11 5 C7.37 5 3.74 5 0 5 C0 3.35 0 1.7 0 0 Z " fill="#1E6FC1" transform="translate(7,33)"/>
<path d="M0 0 C3.63 0 7.26 0 11 0 C11 1.65 11 3.3 11 5 C7.37 5 3.74 5 0 5 C0 3.35 0 1.7 0 0 Z " fill="#1E70C0" transform="translate(7,13)"/>
<path d="M0 0 C3.63 0 7.26 0 11 0 C11 1.32 11 2.64 11 4 C7.37 4 3.74 4 0 4 C0 2.68 0 1.36 0 0 Z " fill="#1F70C1" transform="translate(110,27)"/>
<path d="M0 0 C3.63 0 7.26 0 11 0 C11 1.32 11 2.64 11 4 C7.37 4 3.74 4 0 4 C0 2.68 0 1.36 0 0 Z " fill="#1F70C1" transform="translate(78,27)"/>
<path d="M0 0 C3.63 0 7.26 0 11 0 C11 1.32 11 2.64 11 4 C7.37 4 3.74 4 0 4 C0 2.68 0 1.36 0 0 Z " fill="#1F6FC1" transform="translate(7,27)"/>
<path d="M0 0 C3.63 0 7.26 0 11 0 C11 1.32 11 2.64 11 4 C7.37 4 3.74 4 0 4 C0 2.68 0 1.36 0 0 Z " fill="#1E70C1" transform="translate(7,20)"/>
<path d="M0 0 C2.97 0 5.94 0 9 0 C8.34 1.65 7.68 3.3 7 5 C5.35 5 3.7 5 2 5 C1.34 3.35 0.68 1.7 0 0 Z " fill="#1C6CC4" transform="translate(95,40)"/>
<path d="M0 0 C0.99 0 1.98 0 3 0 C2.67 1.32 2.34 2.64 2 4 C1.34 3.67 0.68 3.34 0 3 C0 2.01 0 1.02 0 0 Z " fill="#1F70C0" transform="translate(98,47)"/>
</svg>
